<svg width="316" height="147" viewBox="0 0 316 147" fill="none" xmlns="http://www.w3.org/2000/svg">
<g clip-path="url(#clip0)">
<rect x="237.749" y="80" width="27.0857" height="27" rx="4" fill="#2C2A2A" stroke="#484947" strokeWidth="2"/>
<path fill-rule="evenodd" clip-rule="evenodd" d="M255.839 90.6278C256.947 88.7238 259.389 88.0697 261.3 89.1647L278.229 98.8625C280.152 99.9638 280.808 102.415 279.694 104.33L269.936 121.1C268.828 123.004 266.387 123.658 264.475 122.563L247.546 112.866C245.624 111.764 244.967 109.313 246.081 107.398L255.839 90.6278Z" fill="#2C2A2A" stroke="#797878" strokeWidth="2"/>
<path fill-rule="evenodd" clip-rule="evenodd" d="M214.163 101.255C212.792 99.5137 213.101 96.994 214.853 95.6362L230.25 83.7C231.991 82.3508 234.499 82.6587 235.861 84.3888L247.882 99.6546C249.253 101.396 248.943 103.916 247.192 105.273L231.794 117.21C230.054 118.559 227.546 118.251 226.184 116.521L214.163 101.255Z" fill="#2C2A2A" stroke="#797878" strokeWidth="2"/>
<path fill-rule="evenodd" clip-rule="evenodd" d="M230.551 115.949C229.371 114.074 229.942 111.601 231.825 110.434L248.401 100.157C250.273 98.996 252.735 99.5645 253.909 101.428L264.252 117.852C265.433 119.727 264.862 122.2 262.979 123.367L246.403 133.645C244.531 134.805 242.069 134.237 240.895 132.373L230.551 115.949Z" fill="#2C2A2A" stroke="#484947" strokeWidth="2"/>
<path d="M23.8494 130H39.3821C48.7571 130 53.0824 125.163 53.0824 118.558C53.0824 111.932 48.6932 107.947 44.4531 107.649V107.308C48.3523 106.264 51.3778 103.239 51.3778 97.7841C51.3778 91.2216 47.0951 86.3636 38.5724 86.3636H23.8494V130ZM27.8338 126.42V109.609H39.5525C45.4119 109.609 49.2684 113.572 49.2684 118.558C49.2684 123.075 46.115 126.42 39.3821 126.42H27.8338ZM27.8338 106.072V89.9432H38.5724C44.5383 89.9432 47.5639 93.1605 47.5639 97.7841C47.5639 102.578 44.0909 106.072 38.9346 106.072H27.8338ZM70.061 130L74.7272 116.854H93.051L97.7172 130H101.893L86.0198 86.3636H81.7584L65.8848 130H70.061ZM76.0056 113.274L83.74 91.5412H84.0383L91.7726 113.274H76.0056ZM144.813 100H148.904C147.498 92.3082 140.957 85.767 131.411 85.767C120.353 85.767 112.661 94.5028 112.661 108.182C112.661 121.839 120.268 130.597 131.688 130.597C141.894 130.597 149.202 123.629 149.202 112.443V108.864H132.626V112.443H145.324C145.218 121.371 139.614 126.847 131.688 126.847C122.867 126.847 116.518 119.901 116.518 108.182C116.518 96.4205 122.91 89.517 131.411 89.517C138.613 89.517 143.236 94.2045 144.813 100ZM190.087 97.2727H193.944C193.645 90.6463 187.914 85.7457 179.796 85.7457C171.742 85.7457 165.542 90.5824 165.542 97.6136C165.542 103.217 169.505 106.733 176.344 108.757L181.564 110.291C186.976 111.868 190.684 113.892 190.684 118.345C190.684 123.587 185.932 127.102 179.412 127.102C173.532 127.102 168.929 124.268 168.503 119.091H164.412C164.881 125.994 170.506 130.746 179.412 130.746C188.873 130.746 194.54 125.398 194.54 118.409C194.54 111.165 188.233 108.267 182.694 106.712L178.091 105.391C173.851 104.197 169.398 102.045 169.398 97.4432C169.398 92.7557 173.596 89.3253 179.689 89.3253C185.464 89.3253 189.597 92.4148 190.087 97.2727Z" fill="#484948"/>
<path d="M37.1449 58C50.4403 58 58.3238 49.7756 58.3238 36.1392C58.3238 22.5455 50.4403 14.3636 37.4432 14.3636H22.3579V58H37.1449ZM30.2628 51.1605V21.2031H36.9957C45.8594 21.2031 50.4829 26.1463 50.4829 36.1392C50.4829 46.1747 45.8594 51.1605 36.7613 51.1605H30.2628ZM65.8345 58H73.7393V42.0199H81.7933L90.3586 58H99.1797L89.7407 40.6989C94.8757 38.6321 97.5817 34.2429 97.5817 28.3196C97.5817 19.9886 92.2123 14.3636 82.1981 14.3636H65.8345V58ZM73.7393 35.4574V20.9688H80.9836C86.8856 20.9688 89.5277 23.6747 89.5277 28.3196C89.5277 32.9645 86.8856 35.4574 81.0263 35.4574H73.7393ZM143.849 36.1818C143.849 22.0767 135.241 13.767 123.8 13.767C112.337 13.767 103.75 22.0767 103.75 36.1818C103.75 50.2656 112.337 58.5966 123.8 58.5966C135.241 58.5966 143.849 50.2869 143.849 36.1818ZM135.902 36.1818C135.902 46.1108 130.916 51.5014 123.8 51.5014C116.705 51.5014 111.697 46.1108 111.697 36.1818C111.697 26.2528 116.705 20.8622 123.8 20.8622C130.916 20.8622 135.902 26.2528 135.902 36.1818ZM151.323 58H159.228V43.2557H167.58C177.658 43.2557 183.07 37.2045 183.07 28.8097C183.07 20.4787 177.722 14.3636 167.686 14.3636H151.323V58ZM159.228 36.7571V20.9688H166.472C172.395 20.9688 175.016 24.1648 175.016 28.8097C175.016 33.4545 172.395 36.7571 166.515 36.7571H159.228ZM189.936 58H197.841V43.2557H206.193C216.271 43.2557 221.683 37.2045 221.683 28.8097C221.683 20.4787 216.335 14.3636 206.3 14.3636H189.936V58ZM197.841 36.7571V20.9688H205.085C211.009 20.9688 213.629 24.1648 213.629 28.8097C213.629 33.4545 211.009 36.7571 205.128 36.7571H197.841ZM236.454 14.3636H228.549V58H236.454V14.3636ZM280.874 14.3636H273.011V44.108H272.628L252.088 14.3636H245.014V58H252.919V28.277H253.281L273.842 58H280.874V14.3636ZM295.687 14.3636H289.551V18.7528C289.551 22.2259 288.187 24.8892 286.632 27.233L290.211 29.5554C293.343 26.956 295.687 22.4815 295.687 18.7102V14.3636Z" fill="#484948"/>
<rect width="316" height="147" rx="6" stroke="#484947" strokeWidth="8"/>
</g>
<defs>
<clipPath id="clip0">
<rect width="316" height="147" rx="4" fill="white"/>
</clipPath>
</defs>
</svg>
