<svg width="514" height="72" viewBox="0 0 514 72" fill="none" xmlns="http://www.w3.org/2000/svg">
<g clip-path="url(#clip0)">
<path d="M19.5807 58H4.79372V14.3636H19.879C24.2113 14.3636 27.9329 15.2372 31.0437 16.9844C34.1687 18.7173 36.5693 21.2102 38.2454 24.4631C39.9216 27.7159 40.7596 31.608 40.7596 36.1392C40.7596 40.6847 39.9145 44.5909 38.2241 47.858C36.548 51.125 34.1261 53.6321 30.9585 55.3793C27.8051 57.1264 24.0125 58 19.5807 58ZM12.6986 51.1605H19.1971C22.2369 51.1605 24.7724 50.6065 26.8037 49.4986C28.8349 48.3764 30.3619 46.7074 31.3846 44.4915C32.4074 42.2614 32.9187 39.4773 32.9187 36.1392C32.9187 32.8011 32.4074 30.0312 31.3846 27.8295C30.3619 25.6136 28.8491 23.9588 26.8463 22.8651C24.8576 21.7571 22.3861 21.2031 19.4315 21.2031H12.6986V51.1605ZM48.2703 58V14.3636H64.6339C67.9862 14.3636 70.7987 14.946 73.0714 16.1108C75.3584 17.2756 77.0842 18.9091 78.249 21.0114C79.428 23.0994 80.0174 25.5355 80.0174 28.3196C80.0174 31.1179 79.4209 33.5469 78.2277 35.6065C77.0487 37.652 75.3086 39.2358 73.0075 40.358C70.7064 41.4659 67.8797 42.0199 64.5274 42.0199H52.8726V35.4574H63.462C65.4223 35.4574 67.0274 35.1875 68.2774 34.6477C69.5274 34.0937 70.4507 33.2912 71.0473 32.2401C71.6581 31.1747 71.9635 29.8679 71.9635 28.3196C71.9635 26.7713 71.6581 25.4503 71.0473 24.3565C70.4365 23.2486 69.5061 22.4105 68.2561 21.8423C67.0061 21.2599 65.3939 20.9688 63.4194 20.9688H56.1751V58H48.2703ZM70.8129 38.2273L81.6155 58H72.7944L62.1836 38.2273H70.8129ZM126.285 36.1818C126.285 40.8835 125.405 44.9105 123.643 48.2628C121.896 51.6009 119.51 54.1577 116.484 55.9332C113.473 57.7088 110.057 58.5966 106.235 58.5966C102.414 58.5966 98.9912 57.7088 95.9656 55.9332C92.9542 54.1435 90.5679 51.5795 88.8065 48.2415C87.0593 44.8892 86.1858 40.8693 86.1858 36.1818C86.1858 31.4801 87.0593 27.4602 88.8065 24.1222C90.5679 20.7699 92.9542 18.206 95.9656 16.4304C98.9912 14.6548 102.414 13.767 106.235 13.767C110.057 13.767 113.473 14.6548 116.484 16.4304C119.51 18.206 121.896 20.7699 123.643 24.1222C125.405 27.4602 126.285 31.4801 126.285 36.1818ZM118.338 36.1818C118.338 32.8722 117.819 30.081 116.782 27.8082C115.76 25.5213 114.339 23.7955 112.521 22.6307C110.703 21.4517 108.608 20.8622 106.235 20.8622C103.863 20.8622 101.768 21.4517 99.95 22.6307C98.1318 23.7955 96.7042 25.5213 95.6673 27.8082C94.6446 30.081 94.1332 32.8722 94.1332 36.1818C94.1332 39.4915 94.6446 42.2898 95.6673 44.5767C96.7042 46.8494 98.1318 48.5753 99.95 49.7543C101.768 50.919 103.863 51.5014 106.235 51.5014C108.608 51.5014 110.703 50.919 112.521 49.7543C114.339 48.5753 115.76 46.8494 116.782 44.5767C117.819 42.2898 118.338 39.4915 118.338 36.1818ZM133.759 58V14.3636H150.122C153.474 14.3636 156.287 14.9886 158.56 16.2386C160.847 17.4886 162.572 19.2074 163.737 21.3949C164.916 23.5682 165.506 26.0398 165.506 28.8097C165.506 31.608 164.916 34.0937 163.737 36.267C162.558 38.4403 160.818 40.152 158.517 41.402C156.216 42.6378 153.382 43.2557 150.016 43.2557H139.17V36.7571H148.95C150.911 36.7571 152.516 36.4162 153.766 35.7344C155.016 35.0526 155.939 34.1151 156.536 32.9219C157.146 31.7287 157.452 30.358 157.452 28.8097C157.452 27.2614 157.146 25.8977 156.536 24.7188C155.939 23.5398 155.009 22.6236 153.744 21.9702C152.494 21.3026 150.882 20.9688 148.908 20.9688H141.663V58H133.759ZM172.372 58V14.3636H188.735C192.088 14.3636 194.9 14.9886 197.173 16.2386C199.46 17.4886 201.186 19.2074 202.351 21.3949C203.53 23.5682 204.119 26.0398 204.119 28.8097C204.119 31.608 203.53 34.0937 202.351 36.267C201.172 38.4403 199.432 40.152 197.13 41.402C194.829 42.6378 191.995 43.2557 188.629 43.2557H177.784V36.7571H187.564C189.524 36.7571 191.129 36.4162 192.379 35.7344C193.629 35.0526 194.552 34.1151 195.149 32.9219C195.76 31.7287 196.065 30.358 196.065 28.8097C196.065 27.2614 195.76 25.8977 195.149 24.7188C194.552 23.5398 193.622 22.6236 192.358 21.9702C191.108 21.3026 189.495 20.9688 187.521 20.9688H180.277V58H172.372ZM218.89 14.3636V58H210.985V14.3636H218.89ZM263.309 14.3636V58H256.278L235.717 28.277H235.355V58H227.45V14.3636H234.524L255.064 44.108H255.447V14.3636H263.309Z" fill="#484948"/>
<path d="M282.795 58V14.3636H297.518C300.359 14.3636 302.724 14.8608 304.614 15.8551C306.517 16.8494 307.945 18.206 308.896 19.9247C309.848 21.6435 310.324 23.5966 310.324 25.7841C310.324 27.6023 310.018 29.1577 309.408 30.4503C308.797 31.7429 307.966 32.7869 306.915 33.5824C305.864 34.3778 304.692 34.9531 303.399 35.3082V35.6491C304.805 35.7486 306.169 36.2457 307.49 37.1406C308.811 38.0213 309.898 39.2571 310.75 40.848C311.602 42.4389 312.028 44.3423 312.028 46.5582C312.028 48.7599 311.538 50.7273 310.558 52.4602C309.578 54.179 308.072 55.5355 306.041 56.5298C304.024 57.5099 301.453 58 298.328 58H282.795ZM286.78 54.4205H298.328C301.695 54.4205 304.18 53.6747 305.786 52.1832C307.405 50.6918 308.214 48.8168 308.214 46.5582C308.214 44.8963 307.81 43.3906 307 42.0412C306.205 40.6776 305.075 39.598 303.612 38.8026C302.163 38.0071 300.459 37.6094 298.499 37.6094H286.78V54.4205ZM286.78 34.0724H297.881C299.599 34.0724 301.105 33.7173 302.398 33.0071C303.69 32.2969 304.699 31.3168 305.423 30.0668C306.148 28.8168 306.51 27.3892 306.51 25.7841C306.51 23.4687 305.757 21.5866 304.251 20.1378C302.746 18.6747 300.501 17.9432 297.518 17.9432H286.78V34.0724ZM321.707 58H317.531L333.404 14.3636H337.666L353.539 58H349.363L335.684 19.5412H335.386L321.707 58ZM324.711 41.2741H346.359V44.8537H324.711V41.2741ZM389.159 28C388.761 26.5511 388.179 25.1946 387.412 23.9304C386.645 22.652 385.693 21.5369 384.557 20.5852C383.435 19.6193 382.135 18.8665 380.658 18.3267C379.195 17.7869 377.561 17.517 375.757 17.517C372.916 17.517 370.374 18.2557 368.129 19.733C365.885 21.2102 364.109 23.3409 362.803 26.125C361.51 28.9091 360.864 32.2614 360.864 36.1818C360.864 40.0881 361.517 43.4332 362.824 46.2173C364.131 49.0014 365.92 51.1392 368.193 52.6307C370.48 54.108 373.094 54.8466 376.034 54.8466C378.719 54.8466 381.091 54.25 383.151 53.0568C385.21 51.8636 386.815 50.1591 387.966 47.9432C389.131 45.7273 389.699 43.0923 389.67 40.0384L390.949 40.4432H376.972V36.8636H393.548V40.4432C393.548 44.1648 392.795 47.3821 391.29 50.0952C389.784 52.8082 387.717 54.9034 385.089 56.3807C382.462 57.858 379.443 58.5966 376.034 58.5966C372.227 58.5966 368.896 57.6804 366.041 55.848C363.186 54.0014 360.963 51.402 359.372 48.0497C357.795 44.6832 357.007 40.7273 357.007 36.1818C357.007 32.7585 357.462 29.669 358.371 26.9134C359.28 24.1577 360.565 21.7997 362.227 19.8395C363.903 17.8793 365.885 16.3807 368.172 15.3438C370.459 14.2926 372.987 13.767 375.757 13.767C378.143 13.767 380.324 14.1435 382.298 14.8963C384.287 15.6491 386.034 16.6861 387.54 18.0071C389.06 19.3139 390.303 20.8267 391.268 22.5455C392.249 24.25 392.909 26.0682 393.25 28H389.159ZM427.133 25.2727C426.892 22.8437 425.819 20.9119 423.916 19.4773C422.012 18.0426 419.619 17.3253 416.735 17.3253C414.704 17.3253 412.914 17.6733 411.366 18.3693C409.832 19.0653 408.625 20.0312 407.744 21.267C406.877 22.4886 406.444 23.8807 406.444 25.4432C406.444 26.5938 406.693 27.6023 407.19 28.4688C407.687 29.3352 408.355 30.081 409.193 30.706C410.045 31.3168 410.983 31.8423 412.005 32.2827C413.042 32.723 414.086 33.0923 415.137 33.3906L419.74 34.7116C421.132 35.0952 422.524 35.5852 423.916 36.1818C425.308 36.7784 426.579 37.5312 427.73 38.4403C428.895 39.3352 429.825 40.4361 430.521 41.7429C431.231 43.0355 431.586 44.5909 431.586 46.4091C431.586 48.7386 430.983 50.8338 429.775 52.6946C428.568 54.5554 426.835 56.0327 424.576 57.1264C422.318 58.206 419.612 58.7457 416.458 58.7457C413.49 58.7457 410.912 58.2557 408.724 57.2756C406.537 56.2812 404.818 54.9105 403.568 53.1634C402.318 51.4162 401.615 49.392 401.458 47.0909H405.549C405.691 48.8097 406.26 50.2656 407.254 51.4588C408.248 52.652 409.541 53.5611 411.132 54.1861C412.723 54.7969 414.498 55.1023 416.458 55.1023C418.632 55.1023 420.564 54.7401 422.254 54.0156C423.958 53.277 425.294 52.2543 426.26 50.9474C427.24 49.6264 427.73 48.0923 427.73 46.3452C427.73 44.8679 427.346 43.6321 426.579 42.6378C425.812 41.6293 424.74 40.7841 423.362 40.1023C421.998 39.4205 420.414 38.8168 418.61 38.2912L413.39 36.7571C409.967 35.7344 407.311 34.321 405.422 32.517C403.532 30.7131 402.588 28.4119 402.588 25.6136C402.588 23.2699 403.213 21.2102 404.463 19.4347C405.727 17.6449 407.431 16.2528 409.576 15.2585C411.735 14.25 414.157 13.7457 416.842 13.7457C419.555 13.7457 421.956 14.2429 424.044 15.2372C426.132 16.2315 427.787 17.6023 429.008 19.3494C430.244 21.0824 430.904 23.0568 430.99 25.2727H427.133Z" fill="#484948"/>
</g>
<rect x="469" y="8" width="27" height="27" rx="4" fill="#2C2A2A" stroke="#979797"/>
<path fill-rule="evenodd" clip-rule="evenodd" d="M487.031 18.6306C488.136 16.7251 490.574 16.0719 492.484 17.1695L509.343 26.8578C511.264 27.9617 511.922 30.4166 510.81 32.3329L501.086 49.0976C499.981 51.0031 497.543 51.6563 495.633 50.5587L478.774 40.8703C476.853 39.7665 476.195 37.3116 477.307 35.3952L487.031 18.6306Z" fill="#2C2A2A" stroke="#979797"/>
<path fill-rule="evenodd" clip-rule="evenodd" d="M445.491 29.2588C444.123 27.5154 444.433 24.9919 446.182 23.6314L461.519 11.7048C463.257 10.353 465.761 10.6605 467.121 12.3927L479.097 27.6508C480.466 29.3941 480.156 31.9177 478.407 33.2782L463.07 45.2048C461.332 46.5566 458.828 46.2491 457.468 44.5169L445.491 29.2588Z" fill="#2C2A2A" stroke="#979797"/>
<path fill-rule="evenodd" clip-rule="evenodd" d="M461.827 43.9524C460.649 42.0758 461.221 39.5992 463.102 38.429L479.61 28.1615C481.481 26.9982 483.939 27.5659 485.111 29.4313L495.417 45.8489C496.595 47.7254 496.024 50.2021 494.142 51.3723L477.634 61.6398C475.764 62.8031 473.305 62.2354 472.134 60.37L461.827 43.9524Z" fill="#2C2A2A" stroke="#979797"/>
<defs>
<clipPath id="clip0">
<rect width="443" height="72" fill="white"/>
</clipPath>
</defs>
</svg>
